<svg width="20" height="20" viewBox="0 0 20 20" fill="none" xmlns="http://www.w3.org/2000/svg">
<path d="M15.9189 12.1242C15.6599 12.3752 15.5409 12.7382 15.5999 13.0942L16.4889 18.0142C16.5639 18.4312 16.3879 18.8532 16.0389 19.0942C15.6969 19.3442 15.2419 19.3742 14.8689 19.1742L10.4399 16.8642C10.2859 16.7822 10.1149 16.7382 9.93989 16.7332H9.66889C9.57489 16.7472 9.48289 16.7772 9.39889 16.8232L4.96888 19.1442C4.74988 19.2542 4.50188 19.2932 4.25888 19.2542C3.66688 19.1422 3.27188 18.5782 3.36888 17.9832L4.25888 13.0632C4.31788 12.7042 4.19888 12.3392 3.93988 12.0842L0.328876 8.58424C0.0268757 8.29124 -0.0781242 7.85124 0.0598758 7.45426C0.193876 7.05826 0.535876 6.76926 0.948876 6.70426L5.91888 5.98326C6.29688 5.94426 6.62888 5.71426 6.79888 5.37426L8.98889 0.88426C9.04089 0.78426 9.10789 0.69226 9.18889 0.61426L9.27889 0.54426C9.32589 0.49226 9.37989 0.44926 9.43989 0.41426L9.54889 0.37426L9.71889 0.30426H10.1399C10.5159 0.34326 10.8469 0.56826 11.0199 0.90426L13.2389 5.37426C13.3989 5.70126 13.7099 5.92826 14.0689 5.98326L19.0389 6.70426C19.4589 6.76426 19.8099 7.05426 19.9489 7.45426C20.0799 7.85524 19.9669 8.29524 19.6589 8.58424L15.9189 12.1242Z" fill="#005F15"/>
</svg>
