<svg width="41" height="40" viewBox="0 0 41 40" fill="none" xmlns="http://www.w3.org/2000/svg">
<path d="M15.7472 12.4805C14.8139 12.4805 14.0806 13.2305 14.0806 14.1471C14.0806 15.0638 14.8306 15.8138 15.7472 15.8138C16.6639 15.8138 17.4138 15.0638 17.4138 14.1471C17.4138 13.2305 16.6639 12.4805 15.7472 12.4805Z" fill="#FF5722"/>
<path d="M36.2668 8.39998C34.8668 5.14998 31.7835 3.33331 27.4835 3.33331H13.5168C8.16683 3.33331 3.8335 7.66665 3.8335 13.0166V26.9833C3.8335 31.2833 5.65016 34.3666 8.90016 35.7666C9.21683 35.9 9.5835 35.8166 9.81683 35.5833L36.0835 9.31665C36.3335 9.06665 36.4168 8.69998 36.2668 8.39998ZM18.0502 20.4C17.4002 21.0333 16.5502 21.3333 15.7002 21.3333C14.8502 21.3333 14.0002 21.0166 13.3502 20.4C11.6502 18.8 9.7835 16.25 10.5002 13.2166C11.1335 10.4666 13.5668 9.23331 15.7002 9.23331C17.8335 9.23331 20.2668 10.4666 20.9002 13.2333C21.6002 16.25 19.7335 18.8 18.0502 20.4Z" fill="#FF5722"/>
<path d="M32.9482 34.2158C33.3148 34.5825 33.2648 35.1825 32.8148 35.4325C31.3482 36.2492 29.5648 36.6658 27.4815 36.6658H13.5149C13.0315 36.6658 12.8315 36.0992 13.1649 35.7658L23.2315 25.6992C23.5648 25.3658 24.0815 25.3658 24.4148 25.6992L32.9482 34.2158Z" fill="#FF5722"/>
<path d="M37.1694 13.0149V26.9815C37.1694 29.0648 36.7527 30.8648 35.936 32.3148C35.686 32.7648 35.086 32.7982 34.7194 32.4482L26.186 23.9148C25.8527 23.5815 25.8527 23.0648 26.186 22.7315L36.2527 12.6649C36.6027 12.3315 37.1694 12.5315 37.1694 13.0149Z" fill="#FF5722"/>
</svg>
