<svg width="32" height="32" viewBox="0 0 32 32" fill="none" xmlns="http://www.w3.org/2000/svg">
<path d="M28.5804 3.44266C27.9134 2.75815 26.9264 2.50314 26.006 2.77157L4.54384 9.01271C3.57277 9.2825 2.88449 10.0569 2.69908 11.0408C2.50966 12.042 3.17128 13.3131 4.03562 13.8446L10.7464 17.9691C11.4347 18.3919 12.323 18.2859 12.8926 17.7114L20.577 9.97909C20.9638 9.57643 21.6041 9.57643 21.991 9.97909C22.3778 10.3683 22.3778 10.9992 21.991 11.4018L14.2932 19.1355C13.7222 19.7086 13.6156 20.6011 14.0357 21.2936L18.1361 28.0718C18.6162 28.877 19.4433 29.3334 20.3502 29.3334C20.457 29.3334 20.577 29.3334 20.6838 29.3199C21.7242 29.1858 22.5512 28.4744 22.858 27.4678L29.2206 6.03307C29.5008 5.12039 29.2473 4.12718 28.5804 3.44266Z" fill="white"/>
</svg>
