<svg width="16" height="16" viewBox="0 0 16 16" fill="none" xmlns="http://www.w3.org/2000/svg">
<path d="M12.8002 0.199951H3.2002C1.53352 0.199951 0.200195 1.53328 0.200195 3.19996V12.8C0.200195 14.4666 1.53352 15.8 3.2002 15.8H12.8002C14.4669 15.8 15.8002 14.4666 15.8002 12.8V3.19995C15.8002 1.53328 14.4669 0.199951 12.8002 0.199951ZM13.6669 1.99995H14.0002V4.66661H11.3335V1.99995H13.6669ZM5.80021 6.39996C6.26687 5.73329 7.13354 5.26661 8.00021 5.26661C8.86688 5.26661 9.73355 5.73329 10.2002 6.39996C10.5335 6.86662 10.7335 7.39995 10.7335 7.99996C10.7335 9.53328 9.46688 10.7333 8.00021 10.7333C6.53354 10.7333 5.26688 9.53329 5.26688 7.99996C5.26687 7.39995 5.46687 6.86662 5.80021 6.39996ZM14.2669 12.8C14.2669 13.6 13.6002 14.2666 12.8002 14.2666H3.2002C2.40021 14.2666 1.73353 13.6 1.73353 12.8V6.39996H4.06686C3.86686 6.86662 3.73354 7.46662 3.73354 7.99996C3.73354 10.3333 5.66687 12.2666 8.0002 12.2666C10.3335 12.2666 12.2669 10.3333 12.2669 7.99996C12.2669 7.46662 12.1335 6.86661 11.9335 6.39996H14.2669L14.2669 12.8Z" fill="white"/>
</svg>
