<svg width="38" height="31" viewBox="0 0 38 31" fill="none" xmlns="http://www.w3.org/2000/svg">
<path d="M37.601 3.99737C36.2297 4.60545 34.7546 5.01673 33.2076 5.20041C34.7871 4.25407 35.9993 2.75669 36.5714 0.969529C35.0934 1.84628 33.4557 2.48231 31.7142 2.82514C30.3189 1.33917 28.331 0.410507 26.1297 0.410507C21.9062 0.410507 18.4808 3.83594 18.4808 8.05941C18.4808 8.65893 18.5487 9.24248 18.6799 9.80264C12.323 9.48377 6.68656 6.43881 2.91373 1.80977C2.25546 2.93922 1.87783 4.25407 1.87783 5.65561C1.87783 8.30869 3.22918 10.6509 5.28045 12.0222C4.02721 11.9828 2.84699 11.6389 1.81623 11.0644C1.81566 11.097 1.81566 11.1295 1.81566 11.1614C1.81566 14.8675 4.45333 17.9587 7.95178 18.6609C7.31061 18.8365 6.63351 18.9295 5.93702 18.9295C5.44302 18.9295 4.96443 18.8822 4.49782 18.7932C5.47097 21.8313 8.29518 24.0429 11.643 24.105C9.02476 26.1569 5.7271 27.3793 2.14251 27.3793C1.52645 27.3793 0.916088 27.3434 0.318848 27.2721C3.70207 29.4431 7.7236 30.7089 12.0429 30.7089C26.112 30.7089 33.806 19.0539 33.806 8.94529C33.806 8.61387 33.7985 8.28359 33.7837 7.95616C35.2794 6.87805 36.576 5.53126 37.601 3.99737Z" fill="#F1F2F2"/>
</svg>
