<svg width="1207" height="236" viewBox="0 0 1207 236" fill="none" xmlns="http://www.w3.org/2000/svg">
<path opacity="0.6" d="M0 223.087C37.7135 223.087 37.7135 235 75.4375 235C113.151 235 113.151 223.087 150.875 223.087C188.588 223.087 188.588 235 226.313 235C264.026 235 264.026 223.087 301.739 223.087C339.453 223.087 339.453 235 377.166 235C414.88 235 414.88 223.087 452.604 223.087C490.317 223.087 490.317 235 528.041 235C565.765 235 565.765 223.087 603.479 223.087C641.192 223.087 641.192 235 678.916 235C716.64 235 716.64 223.087 754.354 223.087C792.078 223.087 792.078 235 829.791 235C867.505 235 867.505 223.087 905.229 223.087C942.953 223.087 942.953 235 980.666 235C1018.39 235 1018.39 223.087 1056.1 223.087C1093.83 223.087 1093.83 235 1131.55 235C1169.28 235 1169.28 223.087 1207 223.087M0 198.411C37.7135 198.411 37.7135 210.324 75.4375 210.324C113.151 210.324 113.151 198.411 150.875 198.411C188.588 198.411 188.588 210.324 226.313 210.324C264.026 210.324 264.026 198.411 301.739 198.411C339.453 198.411 339.453 210.324 377.166 210.324C414.88 210.324 414.88 198.411 452.604 198.411C490.317 198.411 490.317 210.324 528.041 210.324C565.765 210.324 565.765 198.411 603.479 198.411C641.192 198.411 641.192 210.324 678.916 210.324C716.64 210.324 716.64 198.411 754.354 198.411C792.078 198.411 792.078 210.324 829.791 210.324C867.505 210.324 867.505 198.411 905.229 198.411C942.953 198.411 942.953 210.324 980.666 210.324C1018.39 210.324 1018.39 198.411 1056.1 198.411C1093.83 198.411 1093.83 210.324 1131.55 210.324C1169.28 210.324 1169.28 198.411 1207 198.411M0 173.735C37.7135 173.735 37.7135 185.647 75.4375 185.647C113.151 185.647 113.151 173.735 150.875 173.735C188.588 173.735 188.588 185.647 226.313 185.647C264.026 185.647 264.026 173.735 301.739 173.735C339.453 173.735 339.453 185.647 377.166 185.647C414.88 185.647 414.88 173.735 452.604 173.735C490.317 173.735 490.317 185.647 528.041 185.647C565.765 185.647 565.765 173.735 603.479 173.735C641.192 173.735 641.192 185.647 678.916 185.647C716.64 185.647 716.64 173.735 754.354 173.735C792.078 173.735 792.078 185.647 829.791 185.647C867.505 185.647 867.505 173.735 905.229 173.735C942.953 173.735 942.953 185.647 980.666 185.647C1018.39 185.647 1018.39 173.735 1056.1 173.735C1093.83 173.735 1093.83 185.647 1131.55 185.647C1169.28 185.647 1169.28 173.735 1207 173.735M0 149.058C37.7135 149.058 37.7135 160.971 75.4375 160.971C113.151 160.971 113.151 149.058 150.875 149.058C188.588 149.058 188.588 160.971 226.313 160.971C264.026 160.971 264.026 149.058 301.739 149.058C339.453 149.058 339.453 160.971 377.166 160.971C414.88 160.971 414.88 149.058 452.604 149.058C490.317 149.058 490.317 160.971 528.041 160.971C565.765 160.971 565.765 149.058 603.479 149.058C641.192 149.058 641.192 160.971 678.916 160.971C716.64 160.971 716.64 149.058 754.354 149.058C792.078 149.058 792.078 160.971 829.791 160.971C867.505 160.971 867.505 149.058 905.229 149.058C942.953 149.058 942.953 160.971 980.666 160.971C1018.39 160.971 1018.39 149.058 1056.1 149.058C1093.83 149.058 1093.83 160.971 1131.55 160.971C1169.28 160.971 1169.28 149.058 1207 149.058M0 124.382C37.7135 124.382 37.7135 136.295 75.4375 136.295C113.151 136.295 113.151 124.382 150.875 124.382C188.588 124.382 188.588 136.295 226.313 136.295C264.026 136.295 264.026 124.382 301.739 124.382C339.453 124.382 339.453 136.295 377.166 136.295C414.88 136.295 414.88 124.382 452.604 124.382C490.317 124.382 490.317 136.295 528.041 136.295C565.765 136.295 565.765 124.382 603.479 124.382C641.192 124.382 641.192 136.295 678.916 136.295C716.64 136.295 716.64 124.382 754.354 124.382C792.078 124.382 792.078 136.295 829.791 136.295C867.505 136.295 867.505 124.382 905.229 124.382C942.953 124.382 942.953 136.295 980.666 136.295C1018.39 136.295 1018.39 124.382 1056.1 124.382C1093.83 124.382 1093.83 136.295 1131.55 136.295C1169.28 136.295 1169.28 124.382 1207 124.382M0 99.7055C37.7135 99.7055 37.7135 111.618 75.4375 111.618C113.151 111.618 113.151 99.7055 150.875 99.7055C188.588 99.7055 188.588 111.618 226.313 111.618C264.026 111.618 264.026 99.7055 301.739 99.7055C339.453 99.7055 339.453 111.618 377.166 111.618C414.88 111.618 414.88 99.7055 452.604 99.7055C490.317 99.7055 490.317 111.618 528.041 111.618C565.765 111.618 565.765 99.7055 603.479 99.7055C641.192 99.7055 641.192 111.618 678.916 111.618C716.64 111.618 716.64 99.7055 754.354 99.7055C792.078 99.7055 792.078 111.618 829.791 111.618C867.505 111.618 867.505 99.7055 905.229 99.7055C942.953 99.7055 942.953 111.618 980.666 111.618C1018.39 111.618 1018.39 99.7055 1056.1 99.7055C1093.83 99.7055 1093.83 111.618 1131.55 111.618C1169.28 111.618 1169.28 99.7055 1207 99.7055M0 75.0291C37.7135 75.0291 37.7135 86.9418 75.4375 86.9418C113.151 86.9418 113.151 75.0291 150.875 75.0291C188.588 75.0291 188.588 86.9418 226.313 86.9418C264.026 86.9418 264.026 75.0291 301.739 75.0291C339.453 75.0291 339.453 86.9418 377.166 86.9418C414.88 86.9418 414.88 75.0291 452.604 75.0291C490.317 75.0291 490.317 86.9418 528.041 86.9418C565.765 86.9418 565.765 75.0291 603.479 75.0291C641.192 75.0291 641.192 86.9418 678.916 86.9418C716.64 86.9418 716.64 75.0291 754.354 75.0291C792.078 75.0291 792.078 86.9418 829.791 86.9418C867.505 86.9418 867.505 75.0291 905.229 75.0291C942.953 75.0291 942.953 86.9418 980.666 86.9418C1018.39 86.9418 1018.39 75.0291 1056.1 75.0291C1093.83 75.0291 1093.83 86.9418 1131.55 86.9418C1169.28 86.9418 1169.28 75.0291 1207 75.0291M0 50.3527C37.7135 50.3527 37.7135 62.2655 75.4375 62.2655C113.151 62.2655 113.151 50.3527 150.875 50.3527C188.588 50.3527 188.588 62.2655 226.313 62.2655C264.026 62.2655 264.026 50.3527 301.739 50.3527C339.453 50.3527 339.453 62.2655 377.166 62.2655C414.88 62.2655 414.88 50.3527 452.604 50.3527C490.317 50.3527 490.317 62.2655 528.041 62.2655C565.765 62.2655 565.765 50.3527 603.479 50.3527C641.192 50.3527 641.192 62.2655 678.916 62.2655C716.64 62.2655 716.64 50.3527 754.354 50.3527C792.078 50.3527 792.078 62.2655 829.791 62.2655C867.505 62.2655 867.505 50.3527 905.229 50.3527C942.953 50.3527 942.953 62.2655 980.666 62.2655C1018.39 62.2655 1018.39 50.3527 1056.1 50.3527C1093.83 50.3527 1093.83 62.2655 1131.55 62.2655C1169.28 62.2655 1169.28 50.3527 1207 50.3527M0 25.6764C37.7135 25.6764 37.7135 37.5891 75.4375 37.5891C113.151 37.5891 113.151 25.6764 150.875 25.6764C188.588 25.6764 188.588 37.5891 226.313 37.5891C264.026 37.5891 264.026 25.6764 301.739 25.6764C339.453 25.6764 339.453 37.5891 377.166 37.5891C414.88 37.5891 414.88 25.6764 452.604 25.6764C490.317 25.6764 490.317 37.5891 528.041 37.5891C565.765 37.5891 565.765 25.6764 603.479 25.6764C641.192 25.6764 641.192 37.5891 678.916 37.5891C716.64 37.5891 716.64 25.6764 754.354 25.6764C792.078 25.6764 792.078 37.5891 829.791 37.5891C867.505 37.5891 867.505 25.6764 905.229 25.6764C942.953 25.6764 942.953 37.5891 980.666 37.5891C1018.39 37.5891 1018.39 25.6764 1056.1 25.6764C1093.83 25.6764 1093.83 37.5891 1131.55 37.5891C1169.28 37.5891 1169.28 25.6764 1207 25.6764M0 1C37.7135 1 37.7135 12.9127 75.4375 12.9127C113.151 12.9127 113.151 1 150.875 1C188.588 1 188.588 12.9127 226.313 12.9127C264.026 12.9127 264.026 1 301.739 1C339.453 1 339.453 12.9127 377.166 12.9127C414.88 12.9127 414.88 1 452.604 1C490.317 1 490.317 12.9127 528.041 12.9127C565.765 12.9127 565.765 1 603.479 1C641.192 1 641.192 12.9127 678.916 12.9127C716.64 12.9127 716.64 1 754.354 1C792.078 1 792.078 12.9127 829.791 12.9127C867.505 12.9127 867.505 1 905.229 1C942.953 1 942.953 12.9127 980.666 12.9127C1018.39 12.9127 1018.39 1 1056.1 1C1093.83 1 1093.83 12.9127 1131.55 12.9127C1169.28 12.9127 1169.28 1 1207 1" stroke="url(#paint0_linear_5025_1021)" stroke-miterlimit="10"/>
<defs>
<linearGradient id="paint0_linear_5025_1021" x1="603.5" y1="241.466" x2="603.5" y2="18.55" gradientUnits="userSpaceOnUse">
<stop stop-color="#B27C64"/>
<stop offset="1" stop-color="#B27C64" stop-opacity="0"/>
</linearGradient>
</defs>
</svg>
