<svg width="64" height="64" viewBox="0 0 64 64" fill="none" xmlns="http://www.w3.org/2000/svg">
<path d="M32 0C14.3616 0 0 14.3616 0 32C0 49.6384 14.3616 64 32 64C49.6384 64 64 49.6512 64 32C64 14.3488 49.6512 0 32 0ZM40.8704 18.9824C40.8704 19.2512 40.6528 19.4688 40.384 19.4688H36.5312C35.584 19.4688 34.816 20.2368 34.816 21.184V25.216H40.2944C40.3072 25.216 40.32 25.216 40.3328 25.216C40.6016 25.2416 40.7936 25.472 40.768 25.7408L40.2816 31.424C40.256 31.68 40.0512 31.872 39.7952 31.872H34.8032V50.7264C34.8032 50.9952 34.5856 51.2128 34.3168 51.2128H27.4304C27.1616 51.2128 26.944 50.9952 26.944 50.7264V32.1536V31.8464H23.5008C23.232 31.8464 23.0144 31.6288 23.0144 31.36V25.6768C23.0144 25.408 23.232 25.1904 23.5008 25.1904H26.944V19.712C26.944 15.8976 30.0416 12.8 33.856 12.8H40.3584C40.6272 12.8 40.8448 13.0176 40.8448 13.2864V18.9824H40.8704Z" fill="#0C0C0C"/>
</svg>
