<svg width="19" height="16" viewBox="0 0 19 16" fill="none" xmlns="http://www.w3.org/2000/svg">
<path d="M18.8008 2.49876C18.1151 2.8028 17.3775 3.00843 16.604 3.10027C17.3938 2.6271 17.9999 1.87841 18.2859 0.984833C17.547 1.42321 16.7281 1.74122 15.8573 1.91264C15.1597 1.16965 14.1657 0.705322 13.0651 0.705322C10.9533 0.705322 9.24063 2.41804 9.24063 4.52977C9.24063 4.82953 9.27457 5.12131 9.34017 5.40139C6.16174 5.24195 3.34352 3.71948 1.45711 1.40495C1.12797 1.96968 0.939161 2.6271 0.939161 3.32788C0.939161 4.65441 1.61484 5.8255 2.64047 6.51116C2.01385 6.49148 1.42374 6.3195 0.908358 6.03229C0.908072 6.04854 0.908072 6.0648 0.908072 6.08077C0.908072 7.93382 2.22691 9.4794 3.97613 9.8305C3.65555 9.91834 3.317 9.96483 2.96875 9.96483C2.72176 9.96483 2.48246 9.94116 2.24915 9.89667C2.73573 11.4157 4.14783 12.5215 5.82176 12.5526C4.51262 13.5785 2.86379 14.1897 1.0715 14.1897C0.763468 14.1897 0.458288 14.1718 0.159668 14.1361C1.85128 15.2216 3.86205 15.8545 6.02169 15.8545C13.0562 15.8545 16.9032 10.027 16.9032 4.97271C16.9032 4.807 16.8995 4.64186 16.8921 4.47815C17.6399 3.93909 18.2882 3.2657 18.8008 2.49876Z" fill="#F1F2F2"/>
</svg>
