<svg width="32" height="32" viewBox="0 0 32 32" fill="none" xmlns="http://www.w3.org/2000/svg">
<path d="M25.5999 0.400009H6.39992C3.06656 0.400009 0.399902 3.06667 0.399902 6.40003V25.6C0.399902 28.9334 3.06656 31.6 6.39992 31.6H25.5999C28.9333 31.6 31.5999 28.9334 31.5999 25.6V6.4C31.5999 3.06667 28.9332 0.400009 25.5999 0.400009ZM27.3333 4.00001H27.9999V9.33333H22.6666V4.00001H27.3333ZM11.5999 12.8C12.5333 11.4667 14.2666 10.5333 15.9999 10.5333C17.7333 10.5333 19.4666 11.4667 20.3999 12.8C21.0666 13.7333 21.4666 14.8 21.4666 16C21.4666 19.0667 18.9333 21.4667 15.9999 21.4667C13.0666 21.4667 10.5333 19.0667 10.5333 16C10.5333 14.8 10.9333 13.7333 11.5999 12.8ZM28.5333 25.6C28.5333 27.2 27.1999 28.5334 25.5999 28.5334H6.39992C4.79992 28.5334 3.46657 27.2 3.46657 25.6V12.8H8.13324C7.73323 13.7333 7.46658 14.9334 7.46658 16C7.46658 20.6667 11.3333 24.5334 15.9999 24.5334C20.6666 24.5334 24.5332 20.6667 24.5332 16C24.5332 14.9334 24.2666 13.7333 23.8666 12.8H28.5332L28.5333 25.6Z" fill="white"/>
</svg>
