<svg width="34" height="34" viewBox="0 0 34 34" fill="none" xmlns="http://www.w3.org/2000/svg">
<g clip-path="url(#clip0_2_131)">
<path d="M4.22041 26.0382V7.14042C4.22041 6.02664 4.66286 4.95848 5.45042 4.17092C6.23798 3.38336 7.30614 2.94092 8.41991 2.94092H28.0176C28.3888 2.94092 28.7449 3.0884 29.0074 3.35092C29.2699 3.61344 29.4174 3.96949 29.4174 4.34075V29.5378C29.4174 29.909 29.2699 30.2651 29.0074 30.5276C28.7449 30.7901 28.3888 30.9376 28.0176 30.9376H9.11983C7.82042 30.9376 6.57424 30.4214 5.65542 29.5026C4.7366 28.5838 4.22041 27.3376 4.22041 26.0382ZM26.6177 28.1379V23.9384H9.11983C8.56294 23.9384 8.02886 24.1596 7.63508 24.5534C7.2413 24.9472 7.02008 25.4813 7.02008 26.0382C7.02008 26.5951 7.2413 27.1291 7.63508 27.5229C8.02886 27.9167 8.56294 28.1379 9.11983 28.1379H26.6177ZM7.02008 21.6105C7.67617 21.2989 8.39353 21.1378 9.11983 21.1388H26.6177V5.74058H8.41991C8.04865 5.74058 7.6926 5.88807 7.43008 6.15059C7.16756 6.41311 7.02008 6.76916 7.02008 7.14042V21.6105Z" fill="white"/>
</g>
<defs>
<clipPath id="clip0_2_131">
<rect width="33.596" height="33.596" fill="white" transform="translate(0.0209351 0.141357)"/>
</clipPath>
</defs>
</svg>
